<?xml version="1.0" encoding="iso-8859-1"?>
<!-- Generator: Adobe Illustrator 19.0.0, SVG Export Plug-In . SVG Version: 6.00 Build 0)  -->
<svg version="1.1" id="Layer_1" xmlns="http://www.w3.org/2000/svg" xmlns:xlink="http://www.w3.org/1999/xlink" x="0px" y="0px"
	 viewBox="0 0 511.999 511.999" style="enable-background:new 0 0 511.999 511.999;" xml:space="preserve">
<g>
	<g>
		<path d="M471.72,133.743c-7.048-7.033-16.407-10.905-26.352-10.905h-9.541c-3.845-18.195-18.516-32.442-36.938-35.639
			c-1.363-24.033-21.347-43.168-45.715-43.168c-0.991,0-1.981,0.033-2.971,0.097c-6.9-16.929-23.495-28.467-42.395-28.467
			c-5.22,0-10.368,0.887-15.235,2.603C284.025,6.944,270.488,0,256.001,0c-14.486,0-28.025,6.944-36.577,18.263
			c-4.867-1.716-10.015-2.603-15.235-2.603c-18.9,0-35.493,11.538-42.393,28.467c-0.988-0.064-1.979-0.097-2.971-0.097
			c-24.368,0-44.352,19.136-45.715,43.168c-18.422,3.197-33.093,17.445-36.938,35.639H66.63c-20.554,0-37.274,16.721-37.274,37.274
			c0,9.963,3.875,19.324,10.913,26.361c3.168,3.168,6.808,5.687,10.76,7.509c-11.738,27.493-17.694,56.731-17.694,87.086
			c0,30.056,5.888,59.22,17.501,86.677c1.529,3.616,5.039,5.788,8.732,5.788c1.232,0,2.483-0.241,3.688-0.75
			c4.82-2.039,7.076-7.599,5.036-12.419c-10.62-25.11-16.005-51.789-16.005-79.294c0-29.262,6.032-57.383,17.934-83.683h58.686
			c5.233,0,9.476-4.243,9.476-9.476s-4.243-9.476-9.476-9.476H66.63c-4.9,0-9.503-1.904-12.96-5.361s-5.361-8.06-5.361-12.96
			c0-10.102,8.219-18.321,18.321-18.321h378.738c4.891,0,9.497,1.907,12.96,5.362c3.457,3.457,5.361,8.059,5.361,12.959
			c0,10.102-8.219,18.321-18.321,18.321h-273.5c-5.233,0-9.476,4.243-9.476,9.476s4.243,9.476,9.476,9.476h273.5
			c20.554,0,37.274-16.721,37.274-37.274C482.642,150.148,478.767,140.787,471.72,133.743z M95.888,122.838
			c3.842-10.128,13.618-17.361,25.077-17.361c0.524,0,1.042,0.02,1.559,0.049c2.877,0.162,5.687-1.001,7.61-3.158
			c1.922-2.158,2.756-5.076,2.262-7.923c-0.269-1.554-0.407-3.111-0.407-4.626c0-14.798,12.039-26.837,26.837-26.837
			c2.407,0,4.811,0.326,7.148,0.97c2.562,0.708,5.298,0.305,7.549-1.104c2.25-1.409,3.806-3.698,4.288-6.31
			c2.346-12.705,13.44-21.926,26.378-21.926c4.942,0,9.769,1.353,13.962,3.914c2.301,1.405,5.092,1.765,7.675,0.987
			c2.581-0.778,4.71-2.619,5.851-5.062c4.397-9.416,13.945-15.5,24.323-15.5c10.377,0,19.926,6.084,24.324,15.498
			c1.141,2.442,3.27,4.283,5.851,5.062c2.578,0.777,5.37,0.421,7.673-0.986c4.192-2.561,9.021-3.914,13.963-3.914
			c12.938,0,24.033,9.221,26.38,21.926c0.481,2.612,2.037,4.9,4.288,6.31c2.25,1.409,4.99,1.811,7.549,1.104
			c2.336-0.644,4.741-0.97,7.148-0.97c14.797,0,26.836,12.039,26.836,26.837c0,1.514-0.136,3.072-0.406,4.628
			c-0.494,2.848,0.34,5.764,2.262,7.922c1.924,2.158,4.741,3.32,7.61,3.156c0.514-0.029,1.034-0.049,1.557-0.049
			c11.459,0,21.236,7.232,25.077,17.361H95.888z"/>
	</g>
</g>
<g>
	<g>
		<path d="M434.286,414.332c27.866-37.183,44.39-83.331,44.39-133.267c-0.001-20.973-2.914-41.724-8.658-61.675
			c-1.448-5.031-6.702-7.932-11.728-6.486c-5.029,1.448-7.932,6.699-6.484,11.728c5.252,18.246,7.916,37.233,7.916,56.435
			c0,112.33-91.387,203.716-203.716,203.716c-69.966,0-134.224-35.265-171.892-94.334c-2.815-4.412-8.672-5.709-13.085-2.895
			c-4.412,2.814-5.709,8.673-2.895,13.085c3.029,4.75,6.233,9.34,9.567,13.803l-17.666,61.509c-2.473,8.606-0.8,17.642,4.587,24.794
			c5.386,7.151,13.611,11.253,22.565,11.253c8.79,0,16.922-3.981,22.312-10.924l25.566-32.926
			c35.414,22.926,77.149,35.586,120.942,35.586c44.514,0,86.011-13.138,120.837-35.727l25.676,33.066
			c5.391,6.943,13.523,10.924,22.312,10.924c8.953,0,17.179-4.101,22.564-11.253c5.388-7.151,7.059-16.189,4.588-24.794
			L434.286,414.332z M94.527,489.453c-1.774,2.284-4.45,3.595-7.344,3.595c-2.947,0-5.653-1.349-7.426-3.703
			s-2.322-5.328-1.509-8.16l14.098-49.089c8.425,9.157,17.53,17.548,27.238,25.086L94.527,489.453z M432.257,489.344
			c-1.771,2.354-4.479,3.703-7.426,3.703c-2.851,0-5.595-1.344-7.344-3.595l-25.183-32.432c9.787-7.599,18.922-15.994,27.315-25.088
			l14.146,49.252C434.581,484.016,434.03,486.99,432.257,489.344z"/>
	</g>
</g>
<g>
	<g>
		<path d="M195.338,69.174c-20.688,0-37.516,16.83-37.516,37.516c0,5.233,4.243,9.476,9.476,9.476s9.476-4.243,9.476-9.476
			c0-10.236,8.328-18.564,18.564-18.564s18.564,8.328,18.564,18.564c0,5.233,4.243,9.476,9.476,9.476s9.476-4.243,9.476-9.476
			C232.856,86.004,216.026,69.174,195.338,69.174z"/>
	</g>
</g>
<g>
	<g>
		<path d="M292.08,51.784c-20.686,0-37.516,16.83-37.516,37.516c0,5.234,4.242,9.476,9.476,9.476s9.476-4.243,9.476-9.476
			c0-10.236,8.328-18.564,18.564-18.564c10.236,0,18.564,8.328,18.564,18.564c0,5.234,4.242,9.476,9.476,9.476
			c5.235,0,9.476-4.243,9.476-9.476C329.597,68.614,312.767,51.784,292.08,51.784z"/>
	</g>
</g>
<g>
</g>
<g>
</g>
<g>
</g>
<g>
</g>
<g>
</g>
<g>
</g>
<g>
</g>
<g>
</g>
<g>
</g>
<g>
</g>
<g>
</g>
<g>
</g>
<g>
</g>
<g>
</g>
<g>
</g>
</svg>
